<?xml version="1.0" encoding="UTF-8" standalone="no"?>
<!-- Created with Inkscape (http://www.inkscape.org/) -->

<svg
   xmlns:dc="http://purl.org/dc/elements/1.1/"
   xmlns:cc="http://creativecommons.org/ns#"
   xmlns:rdf="http://www.w3.org/1999/02/22-rdf-syntax-ns#"
   xmlns:svg="http://www.w3.org/2000/svg"
   xmlns="http://www.w3.org/2000/svg"
   xmlns:sodipodi="http://sodipodi.sourceforge.net/DTD/sodipodi-0.dtd"
   xmlns:inkscape="http://www.inkscape.org/namespaces/inkscape"
   version="1.0"
   width="24"
   height="26"
   id="svg3174"
   inkscape:version="0.48.1 r9760"
   sodipodi:docname="question.svg"
   inkscape:export-filename="/home/xhacker/Dropbox/Unsorted/axis/img/icon/question.png"
   inkscape:export-xdpi="90"
   inkscape:export-ydpi="90">
  <metadata
     id="metadata10">
    <rdf:RDF>
      <cc:Work
         rdf:about="">
        <dc:format>image/svg+xml</dc:format>
        <dc:type
           rdf:resource="http://purl.org/dc/dcmitype/StillImage" />
        <dc:title></dc:title>
      </cc:Work>
    </rdf:RDF>
  </metadata>
  <sodipodi:namedview
     pagecolor="#ffffff"
     bordercolor="#666666"
     borderopacity="1"
     objecttolerance="10"
     gridtolerance="10"
     guidetolerance="10"
     inkscape:pageopacity="0"
     inkscape:pageshadow="2"
     inkscape:window-width="1440"
     inkscape:window-height="821"
     id="namedview8"
     showgrid="true"
     inkscape:zoom="16"
     inkscape:cx="10.921504"
     inkscape:cy="14.600246"
     inkscape:window-x="0"
     inkscape:window-y="24"
     inkscape:window-maximized="1"
     inkscape:current-layer="layer1"
     inkscape:snap-object-midpoints="true">
    <inkscape:grid
       type="xygrid"
       id="grid2994"
       empspacing="5"
       visible="true"
       enabled="true"
       snapvisiblegridlinesonly="true" />
  </sodipodi:namedview>
  <defs
     id="defs3176">
    <inkscape:perspective
       sodipodi:type="inkscape:persp3d"
       inkscape:vp_x="0 : 12 : 1"
       inkscape:vp_y="0 : 1000 : 0"
       inkscape:vp_z="24 : 12 : 1"
       inkscape:persp3d-origin="12 : 8 : 1"
       id="perspective12" />
    <inkscape:perspective
       id="perspective3606"
       inkscape:persp3d-origin="0.5 : 0.33333333 : 1"
       inkscape:vp_z="1 : 0.5 : 1"
       inkscape:vp_y="0 : 1000 : 0"
       inkscape:vp_x="0 : 0.5 : 1"
       sodipodi:type="inkscape:persp3d" />
    <inkscape:perspective
       id="perspective3628"
       inkscape:persp3d-origin="0.5 : 0.33333333 : 1"
       inkscape:vp_z="1 : 0.5 : 1"
       inkscape:vp_y="0 : 1000 : 0"
       inkscape:vp_x="0 : 0.5 : 1"
       sodipodi:type="inkscape:persp3d" />
    <inkscape:perspective
       id="perspective3650"
       inkscape:persp3d-origin="0.5 : 0.33333333 : 1"
       inkscape:vp_z="1 : 0.5 : 1"
       inkscape:vp_y="0 : 1000 : 0"
       inkscape:vp_x="0 : 0.5 : 1"
       sodipodi:type="inkscape:persp3d" />
    <inkscape:perspective
       id="perspective3672"
       inkscape:persp3d-origin="0.5 : 0.33333333 : 1"
       inkscape:vp_z="1 : 0.5 : 1"
       inkscape:vp_y="0 : 1000 : 0"
       inkscape:vp_x="0 : 0.5 : 1"
       sodipodi:type="inkscape:persp3d" />
    <inkscape:perspective
       id="perspective3694"
       inkscape:persp3d-origin="0.5 : 0.33333333 : 1"
       inkscape:vp_z="1 : 0.5 : 1"
       inkscape:vp_y="0 : 1000 : 0"
       inkscape:vp_x="0 : 0.5 : 1"
       sodipodi:type="inkscape:persp3d" />
    <inkscape:perspective
       id="perspective3716"
       inkscape:persp3d-origin="0.5 : 0.33333333 : 1"
       inkscape:vp_z="1 : 0.5 : 1"
       inkscape:vp_y="0 : 1000 : 0"
       inkscape:vp_x="0 : 0.5 : 1"
       sodipodi:type="inkscape:persp3d" />
    <inkscape:perspective
       id="perspective2826"
       inkscape:persp3d-origin="0.5 : 0.33333333 : 1"
       inkscape:vp_z="1 : 0.5 : 1"
       inkscape:vp_y="0 : 1000 : 0"
       inkscape:vp_x="0 : 0.5 : 1"
       sodipodi:type="inkscape:persp3d" />
    <inkscape:perspective
       id="perspective2839"
       inkscape:persp3d-origin="0.5 : 0.33333333 : 1"
       inkscape:vp_z="1 : 0.5 : 1"
       inkscape:vp_y="0 : 1000 : 0"
       inkscape:vp_x="0 : 0.5 : 1"
       sodipodi:type="inkscape:persp3d" />
    <inkscape:perspective
       id="perspective2858"
       inkscape:persp3d-origin="0.5 : 0.33333333 : 1"
       inkscape:vp_z="1 : 0.5 : 1"
       inkscape:vp_y="0 : 1000 : 0"
       inkscape:vp_x="0 : 0.5 : 1"
       sodipodi:type="inkscape:persp3d" />
    <inkscape:perspective
       id="perspective3742"
       inkscape:persp3d-origin="0.5 : 0.33333333 : 1"
       inkscape:vp_z="1 : 0.5 : 1"
       inkscape:vp_y="0 : 1000 : 0"
       inkscape:vp_x="0 : 0.5 : 1"
       sodipodi:type="inkscape:persp3d" />
  </defs>
  <g
     inkscape:groupmode="layer"
     id="layer1"
     inkscape:label="层"
     transform="translate(0,2)">
    <path
       style="fill:#d33682;fill-opacity:1;fill-rule:nonzero;stroke:none;stroke-width:3;marker:none;visibility:visible;display:inline;overflow:visible;enable-background:accumulate"
       d="M 12,0 C 5.928,0 1,4.928 1,11 1,17.072 5.928,21.999998 12,22 18.072,22 23,17.072 23,11 23,4.928 18.072,3.0105527e-7 12,0 z m 0.04911,4.8125 c 1.363992,1.32e-5 2.48861,0.3521438 3.339286,1.1294643 0.850655,0.7626779 1.276775,1.7635459 1.276786,2.9955357 -1.1e-5,0.894674 -0.24306,1.623162 -0.785715,2.209821 -0.528009,0.586673 -1.464449,1.181196 -2.799107,1.767858 -0.08802,0.792004 -0.484138,1.178574 -1.129464,1.178571 -0.42534,3e-6 -0.727708,-0.139067 -0.933036,-0.491071 -0.102677,-0.190662 -0.147321,-0.507698 -0.147321,-0.933036 l 0,-1.227679 c 1.407993,-0.54266 2.34954,-0.973885 2.848214,-1.325893 0.498658,-0.366658 0.736598,-0.807443 0.736607,-1.276785 -9e-6,-0.542657 -0.198402,-0.9885497 -0.638393,-1.3258931 -0.440008,-0.3519892 -1.014758,-0.5401676 -1.71875,-0.5401786 -0.806672,1.1e-5 -1.574708,0.1881894 -2.308035,0.5401786 l 0,0.2946428 C 9.790177,8.292045 9.725752,8.663295 9.593753,8.839286 9.359079,9.147295 9.027377,9.281259 8.660714,9.28125 8.250045,9.281259 7.947676,9.09308 7.727679,8.741071 7.62501,8.579748 7.580355,8.262712 7.580357,7.8080357 l 0,-1.71875 c 1.055997,-0.513321 1.88846,-0.8552373 2.504464,-1.03125 0.615996,-0.1759869 1.26028,-0.2455225 1.964286,-0.2455357 z m -0.294643,10.558036 0.392857,0 c 0.41066,3e-6 0.752576,0.163299 1.03125,0.441964 0.278659,0.278669 0.39285,0.620585 0.392858,1.03125 -8e-6,0.410668 -0.114196,0.752584 -0.392858,1.03125 -0.278674,0.278666 -0.62059,0.392857 -1.03125,0.392857 l -0.392857,0 c -0.410672,0 -0.737922,-0.114191 -1.03125,-0.392857 -0.278672,-0.293332 -0.441969,-0.63525 -0.441964,-1.03125 -5e-6,-0.395998 0.163292,-0.752581 0.441964,-1.03125 0.293328,-0.293331 0.620578,-0.441961 1.03125,-0.441964 z"
       id="path2396"
       inkscape:connector-curvature="0" />
  </g>
</svg>
